<?xml version="1.0" encoding="utf-8"?>
<!-- Generator: Adobe Illustrator 19.0.0, SVG Export Plug-In . SVG Version: 6.00 Build 0)  -->
<svg version="1.1" id="Layer_1" xmlns="http://www.w3.org/2000/svg" xmlns:xlink="http://www.w3.org/1999/xlink" x="0px" y="0px"
	 viewBox="-416 371 290 53" style="enable-background:new -416 371 290 53;" xml:space="preserve">
<style type="text/css">
	.st0{fill:#44BBA4;}
	.st1{fill:#FFFFFF;}
</style>
<path id="XMLID_61_" class="st0" d="M-130,424.3h-282c-2.2,0-4-1.8-4-4v-45c0-2.2,1.8-4,4-4h282c2.2,0,4,1.8,4,4v45
	C-126,422.5-127.8,424.3-130,424.3z"/>
<g id="XMLID_47_">
	<path id="XMLID_48_" class="st1" d="M-352.4,391.6c0.5,0.2,0.9,0.5,1.2,0.9c0.3,0.3,0.5,0.7,0.7,1.1c0.2,0.4,0.2,0.9,0.2,1.4
		c0,0.6-0.2,1.2-0.5,1.8s-0.8,1-1.5,1.3c0.6,0.2,1,0.6,1.3,1s0.4,1.1,0.4,2v0.9c0,0.6,0,1,0.1,1.2c0.1,0.3,0.2,0.6,0.5,0.7v0.3h-3
		c-0.1-0.3-0.1-0.5-0.2-0.7c-0.1-0.4-0.1-0.7-0.1-1.1l0-1.2c0-0.8-0.2-1.4-0.4-1.7s-0.8-0.4-1.5-0.4h-2.6v5.1h-2.6v-13h6.2
		C-353.5,391.3-352.8,391.4-352.4,391.6z M-358,393.5v3.5h2.9c0.6,0,1-0.1,1.3-0.2c0.5-0.2,0.8-0.7,0.8-1.5c0-0.8-0.2-1.3-0.7-1.6
		c-0.3-0.2-0.7-0.2-1.3-0.2H-358z"/>
	<path id="XMLID_51_" class="st1" d="M-341.6,394.9c0.7,0.3,1.2,0.8,1.7,1.4c0.4,0.6,0.6,1.2,0.8,2c0.1,0.4,0.1,1.1,0.1,1.9h-7
		c0,1,0.4,1.6,1,2c0.4,0.2,0.8,0.4,1.4,0.4c0.6,0,1-0.1,1.4-0.4c0.2-0.2,0.4-0.4,0.5-0.7h2.6c-0.1,0.6-0.4,1.1-0.9,1.7
		c-0.9,0.9-2.1,1.4-3.6,1.4c-1.3,0-2.4-0.4-3.4-1.2c-1-0.8-1.5-2.1-1.5-3.8c0-1.7,0.4-2.9,1.3-3.8c0.9-0.9,2-1.3,3.4-1.3
		C-343,394.4-342.3,394.6-341.6,394.9z M-345.4,397c-0.4,0.4-0.6,0.9-0.7,1.5h4.3c0-0.7-0.3-1.2-0.7-1.5c-0.4-0.3-0.9-0.5-1.5-0.5
		C-344.5,396.5-345,396.7-345.4,397z"/>
	<path id="XMLID_54_" class="st1" d="M-335.9,401.2c0.1,0.4,0.2,0.8,0.3,0.9c0.3,0.3,0.9,0.5,1.7,0.5c0.5,0,0.9-0.1,1.2-0.2
		s0.4-0.4,0.4-0.7c0-0.3-0.1-0.5-0.4-0.6s-1.1-0.4-2.6-0.8c-1.1-0.3-1.9-0.6-2.3-1c-0.4-0.4-0.7-1-0.7-1.7c0-0.9,0.3-1.6,1-2.3
		c0.7-0.6,1.7-1,2.9-1c1.2,0,2.2,0.2,2.9,0.7s1.2,1.3,1.3,2.5h-2.5c0-0.3-0.1-0.6-0.3-0.8c-0.3-0.3-0.7-0.5-1.4-0.5
		c-0.5,0-0.9,0.1-1.2,0.3s-0.3,0.4-0.3,0.6c0,0.3,0.1,0.5,0.4,0.6c0.2,0.1,1.1,0.4,2.6,0.7c1,0.2,1.7,0.6,2.2,1.1
		c0.5,0.5,0.7,1.1,0.7,1.8c0,0.9-0.4,1.7-1.1,2.3c-0.7,0.6-1.8,0.9-3.3,0.9c-1.5,0-2.6-0.3-3.3-1c-0.7-0.6-1.1-1.4-1.1-2.4H-335.9z"
		/>
	<path id="XMLID_56_" class="st1" d="M-321.6,394.9c0.7,0.3,1.2,0.8,1.7,1.4c0.4,0.6,0.6,1.2,0.8,2c0.1,0.4,0.1,1.1,0.1,1.9h-7
		c0,1,0.4,1.6,1,2c0.4,0.2,0.8,0.4,1.4,0.4c0.6,0,1-0.1,1.4-0.4c0.2-0.2,0.4-0.4,0.5-0.7h2.6c-0.1,0.6-0.4,1.1-0.9,1.7
		c-0.9,0.9-2.1,1.4-3.6,1.4c-1.3,0-2.4-0.4-3.4-1.2c-1-0.8-1.5-2.1-1.5-3.8c0-1.7,0.4-2.9,1.3-3.8c0.9-0.9,2-1.3,3.4-1.3
		C-323,394.4-322.3,394.6-321.6,394.9z M-325.3,397c-0.4,0.4-0.6,0.9-0.7,1.5h4.3c0-0.7-0.3-1.2-0.7-1.5c-0.4-0.3-0.9-0.5-1.5-0.5
		C-324.5,396.5-325,396.7-325.3,397z"/>
	<path id="XMLID_59_" class="st1" d="M-318.8,396.5v-1.8h1.3v-2.7h2.5v2.7h1.6v1.8h-1.6v5.1c0,0.4,0,0.6,0.1,0.7s0.4,0.1,0.9,0.1
		c0.1,0,0.2,0,0.2,0c0.1,0,0.2,0,0.3,0v1.9l-1.2,0c-1.2,0-2-0.2-2.4-0.6c-0.3-0.3-0.4-0.7-0.4-1.3v-5.9H-318.8z"/>
	<path id="XMLID_63_" class="st1" d="M-306.5,406.1l0.3,0c0.2,0,0.5,0,0.7,0s0.4-0.1,0.6-0.2c0.1-0.1,0.3-0.3,0.4-0.6
		s0.2-0.5,0.2-0.6l-3.5-10h2.8l2.1,7.1l2-7.1h2.7l-3.3,9.4c-0.6,1.8-1.1,2.9-1.5,3.4c-0.4,0.4-1.1,0.7-2.2,0.7c-0.2,0-0.4,0-0.5,0
		c-0.1,0-0.3,0-0.6,0V406.1z"/>
	<path id="XMLID_65_" class="st1" d="M-288.8,403.1c-0.8,1-2,1.5-3.7,1.5s-2.9-0.5-3.7-1.5s-1.2-2.2-1.2-3.6c0-1.4,0.4-2.6,1.2-3.6
		c0.8-1,2-1.5,3.7-1.5s2.9,0.5,3.7,1.5c0.8,1,1.2,2.2,1.2,3.6C-287.6,400.9-288,402.1-288.8,403.1z M-290.8,401.7
		c0.4-0.5,0.6-1.3,0.6-2.2c0-1-0.2-1.7-0.6-2.2s-1-0.8-1.7-0.8s-1.3,0.3-1.7,0.8c-0.4,0.5-0.6,1.3-0.6,2.2c0,1,0.2,1.7,0.6,2.2
		c0.4,0.5,1,0.8,1.7,0.8S-291.2,402.2-290.8,401.7z"/>
	<path id="XMLID_68_" class="st1" d="M-283.3,394.7v5.8c0,0.5,0.1,1,0.2,1.2c0.2,0.5,0.7,0.7,1.3,0.7c0.9,0,1.4-0.3,1.7-1
		c0.2-0.4,0.2-0.9,0.2-1.5v-5.2h2.5v9.6h-2.4v-1.4c0,0-0.1,0.1-0.2,0.3c-0.1,0.1-0.2,0.3-0.3,0.4c-0.4,0.4-0.8,0.6-1.1,0.7
		s-0.8,0.2-1.3,0.2c-1.4,0-2.4-0.5-2.9-1.5c-0.3-0.6-0.4-1.4-0.4-2.5v-5.8H-283.3z"/>
	<path id="XMLID_70_" class="st1" d="M-269.5,394.4c0,0,0.1,0,0.2,0v2.6c-0.2,0-0.3,0-0.4,0s-0.2,0-0.3,0c-1,0-1.7,0.3-2,1
		c-0.2,0.4-0.3,0.9-0.3,1.7v4.6h-2.5v-9.6h2.4v1.7c0.4-0.6,0.7-1.1,1-1.3c0.5-0.4,1.1-0.6,1.8-0.6
		C-269.6,394.4-269.5,394.4-269.5,394.4z"/>
	<path id="XMLID_72_" class="st1" d="M-254.8,395.7c0.8,0.8,1.2,2,1.2,3.6c0,1.7-0.4,3-1.1,3.9s-1.7,1.3-3,1.3
		c-0.8,0-1.4-0.2-1.9-0.6c-0.3-0.2-0.5-0.5-0.8-0.9v5h-2.5v-13.4h2.4v1.4c0.3-0.4,0.6-0.7,0.9-1c0.6-0.4,1.2-0.6,2-0.6
		C-256.5,394.5-255.6,394.9-254.8,395.7z M-256.7,397.5c-0.3-0.6-0.9-0.9-1.7-0.9c-0.9,0-1.5,0.4-1.9,1.3c-0.2,0.5-0.3,1-0.3,1.7
		c0,1.1,0.3,1.9,0.9,2.3c0.4,0.3,0.8,0.4,1.3,0.4c0.7,0,1.2-0.3,1.6-0.8c0.4-0.5,0.6-1.3,0.6-2.2
		C-256.2,398.7-256.4,398.1-256.7,397.5z"/>
	<path id="XMLID_75_" class="st1" d="M-248,398.4c0.5-0.1,0.8-0.1,1-0.2c0.4-0.2,0.5-0.4,0.5-0.7c0-0.4-0.1-0.7-0.4-0.8
		s-0.7-0.2-1.2-0.2c-0.6,0-1,0.1-1.3,0.4c-0.2,0.2-0.3,0.5-0.4,0.9h-2.4c0.1-0.8,0.3-1.5,0.7-2.1c0.7-0.8,1.8-1.3,3.4-1.3
		c1.1,0,2,0.2,2.8,0.6c0.8,0.4,1.2,1.2,1.2,2.4v4.4c0,0.3,0,0.7,0,1.1c0,0.3,0.1,0.6,0.1,0.7s0.2,0.2,0.4,0.3v0.4h-2.7
		c-0.1-0.2-0.1-0.4-0.2-0.5s-0.1-0.4-0.1-0.6c-0.3,0.4-0.7,0.7-1.2,1c-0.5,0.3-1.2,0.5-1.8,0.5c-0.9,0-1.6-0.2-2.2-0.7
		c-0.6-0.5-0.9-1.2-0.9-2.1c0-1.2,0.5-2,1.4-2.6c0.5-0.3,1.2-0.5,2.2-0.6L-248,398.4z M-246.5,399.6c-0.2,0.1-0.3,0.2-0.5,0.2
		c-0.2,0.1-0.4,0.1-0.7,0.2l-0.6,0.1c-0.5,0.1-0.9,0.2-1.2,0.3c-0.4,0.2-0.6,0.6-0.6,1.1c0,0.4,0.1,0.7,0.4,0.9s0.5,0.3,0.9,0.3
		c0.5,0,1.1-0.2,1.5-0.5s0.7-0.9,0.7-1.7V399.6z"/>
	<path id="XMLID_78_" class="st1" d="M-239.9,401.2c0.1,0.4,0.2,0.8,0.3,0.9c0.3,0.3,0.9,0.5,1.7,0.5c0.5,0,0.9-0.1,1.2-0.2
		c0.3-0.1,0.4-0.4,0.4-0.7c0-0.3-0.1-0.5-0.4-0.6c-0.2-0.1-1.1-0.4-2.6-0.8c-1.1-0.3-1.9-0.6-2.3-1c-0.4-0.4-0.7-1-0.7-1.7
		c0-0.9,0.3-1.6,1-2.3c0.7-0.6,1.7-1,2.9-1c1.2,0,2.2,0.2,2.9,0.7c0.8,0.5,1.2,1.3,1.3,2.5h-2.5c0-0.3-0.1-0.6-0.3-0.8
		c-0.3-0.3-0.7-0.5-1.4-0.5c-0.5,0-0.9,0.1-1.2,0.3c-0.2,0.2-0.3,0.4-0.3,0.6c0,0.3,0.1,0.5,0.4,0.6c0.2,0.1,1.1,0.4,2.6,0.7
		c1,0.2,1.7,0.6,2.2,1.1c0.5,0.5,0.7,1.1,0.7,1.8c0,0.9-0.4,1.7-1.1,2.3c-0.7,0.6-1.8,0.9-3.3,0.9c-1.5,0-2.6-0.3-3.3-1
		c-0.7-0.6-1.1-1.4-1.1-2.4H-239.9z"/>
	<path id="XMLID_80_" class="st1" d="M-229.9,401.2c0.1,0.4,0.2,0.8,0.3,0.9c0.3,0.3,0.9,0.5,1.7,0.5c0.5,0,0.9-0.1,1.2-0.2
		c0.3-0.1,0.4-0.4,0.4-0.7c0-0.3-0.1-0.5-0.4-0.6c-0.2-0.1-1.1-0.4-2.6-0.8c-1.1-0.3-1.9-0.6-2.3-1c-0.4-0.4-0.7-1-0.7-1.7
		c0-0.9,0.3-1.6,1-2.3c0.7-0.6,1.7-1,2.9-1c1.2,0,2.2,0.2,2.9,0.7c0.8,0.5,1.2,1.3,1.3,2.5h-2.5c0-0.3-0.1-0.6-0.3-0.8
		c-0.3-0.3-0.7-0.5-1.4-0.5c-0.5,0-0.9,0.1-1.2,0.3c-0.2,0.2-0.3,0.4-0.3,0.6c0,0.3,0.1,0.5,0.4,0.6c0.2,0.1,1.1,0.4,2.6,0.7
		c1,0.2,1.7,0.6,2.2,1.1c0.5,0.5,0.7,1.1,0.7,1.8c0,0.9-0.4,1.7-1.1,2.3c-0.7,0.6-1.8,0.9-3.3,0.9c-1.5,0-2.6-0.3-3.3-1
		c-0.7-0.6-1.1-1.4-1.1-2.4H-229.9z"/>
	<path id="XMLID_82_" class="st1" d="M-217.3,394.7h2.5l1.5,6.9l1.5-6.9h2.6l-2.8,9.6h-2.6l-1.5-7l-1.5,7h-2.6l-2.7-9.6h2.7l1.5,6.9
		L-217.3,394.7z"/>
	<path id="XMLID_84_" class="st1" d="M-199.8,403.1c-0.8,1-2,1.5-3.7,1.5s-2.9-0.5-3.7-1.5s-1.2-2.2-1.2-3.6c0-1.4,0.4-2.6,1.2-3.6
		c0.8-1,2-1.5,3.7-1.5s2.9,0.5,3.7,1.5c0.8,1,1.2,2.2,1.2,3.6C-198.6,400.9-199,402.1-199.8,403.1z M-201.8,401.7
		c0.4-0.5,0.6-1.3,0.6-2.2c0-1-0.2-1.7-0.6-2.2s-1-0.8-1.7-0.8s-1.3,0.3-1.7,0.8c-0.4,0.5-0.6,1.3-0.6,2.2c0,1,0.2,1.7,0.6,2.2
		c0.4,0.5,1,0.8,1.7,0.8S-202.2,402.2-201.8,401.7z"/>
	<path id="XMLID_87_" class="st1" d="M-191.5,394.4c0,0,0.1,0,0.2,0v2.6c-0.2,0-0.3,0-0.4,0s-0.2,0-0.3,0c-1,0-1.7,0.3-2,1
		c-0.2,0.4-0.3,0.9-0.3,1.7v4.6h-2.5v-9.6h2.4v1.7c0.4-0.6,0.7-1.1,1-1.3c0.5-0.4,1.1-0.6,1.8-0.6
		C-191.6,394.4-191.5,394.4-191.5,394.4z"/>
	<path id="XMLID_91_" class="st1" d="M-184.7,394.8c0.5,0.3,0.8,0.6,1.1,1.1v-4.6h2.5v12.9h-2.4v-1.3c-0.4,0.6-0.8,1-1.2,1.2
		s-1,0.4-1.7,0.4c-1.1,0-2.1-0.5-2.8-1.4c-0.8-0.9-1.1-2.1-1.1-3.5c0-1.6,0.4-2.9,1.1-3.9c0.8-0.9,1.8-1.4,3-1.4
		C-185.7,394.4-185.2,394.6-184.7,394.8z M-184.1,401.6c0.4-0.5,0.6-1.2,0.6-2c0-1.2-0.3-2-0.9-2.5c-0.4-0.3-0.8-0.5-1.3-0.5
		c-0.7,0-1.3,0.3-1.6,0.8c-0.3,0.6-0.5,1.2-0.5,2.1c0,0.9,0.2,1.6,0.5,2.1s0.9,0.8,1.6,0.8S-184.5,402.2-184.1,401.6z"/>
</g>
</svg>
